<mxfile host="app.diagrams.net" modified="2023-12-08T11:44:07.607Z" agent="Mozilla/5.0 (Windows NT 10.0; Win64; x64) AppleWebKit/537.36 (KHTML, like Gecko) Chrome/119.0.0.0 Safari/537.36" version="22.1.7" etag="ziVGxBRtIxZKqGw08rp9" type="github">
  <diagram name="Seite-1" id="oXaGfjyNoXFZ7_rm_sh4">
    <mxGraphModel>
      <root>
        <mxCell id="0" />
        <mxCell id="1" parent="0" />
      </root>
    </mxGraphModel>
  </diagram>
</mxfile>
